<mxfile host="app.diagrams.net" agent="Mozilla/5.0 (Windows NT 10.0; Win64; x64) AppleWebKit/537.36 (KHTML, like Gecko) Chrome/131.0.0.0 Safari/537.36" version="26.0.4">
  <diagram name="SISHAB-Integração" id="5f0bae14-7c28-e335-631c-24af17079c00">
    <mxGraphModel dx="1434" dy="1685" grid="1" gridSize="10" guides="1" tooltips="1" connect="1" arrows="1" fold="1" page="1" pageScale="1" pageWidth="1169" pageHeight="827" background="none" math="0" shadow="0">
      <root>
        <mxCell id="0" />
        <mxCell id="1" parent="0" />
        <mxCell id="AxvDGe59i9QEhmf25YqC-6" style="edgeStyle=orthogonalEdgeStyle;rounded=0;orthogonalLoop=1;jettySize=auto;html=1;curved=1;fontSize=10;" edge="1" parent="1" source="AxvDGe59i9QEhmf25YqC-1" target="AxvDGe59i9QEhmf25YqC-2">
          <mxGeometry relative="1" as="geometry" />
        </mxCell>
        <mxCell id="AxvDGe59i9QEhmf25YqC-7" style="edgeStyle=orthogonalEdgeStyle;rounded=0;orthogonalLoop=1;jettySize=auto;html=1;curved=1;fontSize=10;" edge="1" parent="1" source="AxvDGe59i9QEhmf25YqC-1" target="AxvDGe59i9QEhmf25YqC-3">
          <mxGeometry relative="1" as="geometry" />
        </mxCell>
        <mxCell id="AxvDGe59i9QEhmf25YqC-17" style="edgeStyle=orthogonalEdgeStyle;rounded=0;orthogonalLoop=1;jettySize=auto;html=1;curved=1;fontSize=10;" edge="1" parent="1" source="AxvDGe59i9QEhmf25YqC-1" target="AxvDGe59i9QEhmf25YqC-8">
          <mxGeometry relative="1" as="geometry">
            <Array as="points">
              <mxPoint x="215" y="230" />
              <mxPoint x="490" y="230" />
              <mxPoint x="490" y="40" />
            </Array>
          </mxGeometry>
        </mxCell>
        <mxCell id="AxvDGe59i9QEhmf25YqC-18" value="netTCP" style="edgeLabel;html=1;align=center;verticalAlign=middle;resizable=0;points=[];fontSize=10;" vertex="1" connectable="0" parent="AxvDGe59i9QEhmf25YqC-17">
          <mxGeometry x="-0.1892" y="2" relative="1" as="geometry">
            <mxPoint as="offset" />
          </mxGeometry>
        </mxCell>
        <mxCell id="AxvDGe59i9QEhmf25YqC-19" style="edgeStyle=orthogonalEdgeStyle;curved=1;rounded=0;orthogonalLoop=1;jettySize=auto;html=1;fontSize=10;" edge="1" parent="1" source="AxvDGe59i9QEhmf25YqC-1" target="AxvDGe59i9QEhmf25YqC-9">
          <mxGeometry relative="1" as="geometry">
            <Array as="points">
              <mxPoint x="685" y="260" />
            </Array>
          </mxGeometry>
        </mxCell>
        <mxCell id="AxvDGe59i9QEhmf25YqC-20" value="netTCP" style="edgeLabel;html=1;align=center;verticalAlign=middle;resizable=0;points=[];fontSize=10;" vertex="1" connectable="0" parent="AxvDGe59i9QEhmf25YqC-19">
          <mxGeometry x="-0.0962" y="33" relative="1" as="geometry">
            <mxPoint as="offset" />
          </mxGeometry>
        </mxCell>
        <mxCell id="AxvDGe59i9QEhmf25YqC-21" style="edgeStyle=orthogonalEdgeStyle;curved=1;rounded=0;orthogonalLoop=1;jettySize=auto;html=1;fontSize=10;" edge="1" parent="1" source="AxvDGe59i9QEhmf25YqC-1" target="AxvDGe59i9QEhmf25YqC-10">
          <mxGeometry relative="1" as="geometry" />
        </mxCell>
        <mxCell id="AxvDGe59i9QEhmf25YqC-22" value="netTCP" style="edgeLabel;html=1;align=center;verticalAlign=middle;resizable=0;points=[];fontSize=10;" vertex="1" connectable="0" parent="AxvDGe59i9QEhmf25YqC-21">
          <mxGeometry x="-0.0621" y="21" relative="1" as="geometry">
            <mxPoint as="offset" />
          </mxGeometry>
        </mxCell>
        <mxCell id="AxvDGe59i9QEhmf25YqC-23" style="edgeStyle=orthogonalEdgeStyle;curved=1;rounded=0;orthogonalLoop=1;jettySize=auto;html=1;fontSize=10;" edge="1" parent="1" source="AxvDGe59i9QEhmf25YqC-1" target="AxvDGe59i9QEhmf25YqC-11">
          <mxGeometry relative="1" as="geometry" />
        </mxCell>
        <mxCell id="AxvDGe59i9QEhmf25YqC-24" value="netTCP" style="edgeLabel;html=1;align=center;verticalAlign=middle;resizable=0;points=[];fontSize=10;" vertex="1" connectable="0" parent="AxvDGe59i9QEhmf25YqC-23">
          <mxGeometry x="0.4128" y="23" relative="1" as="geometry">
            <mxPoint as="offset" />
          </mxGeometry>
        </mxCell>
        <mxCell id="AxvDGe59i9QEhmf25YqC-25" style="edgeStyle=orthogonalEdgeStyle;curved=1;rounded=0;orthogonalLoop=1;jettySize=auto;html=1;fontSize=10;" edge="1" parent="1" source="AxvDGe59i9QEhmf25YqC-1" target="AxvDGe59i9QEhmf25YqC-12">
          <mxGeometry relative="1" as="geometry">
            <Array as="points">
              <mxPoint x="600" y="290" />
              <mxPoint x="600" y="320" />
            </Array>
          </mxGeometry>
        </mxCell>
        <mxCell id="AxvDGe59i9QEhmf25YqC-26" value="SOAP" style="edgeLabel;html=1;align=center;verticalAlign=middle;resizable=0;points=[];fontSize=10;" vertex="1" connectable="0" parent="AxvDGe59i9QEhmf25YqC-25">
          <mxGeometry x="0.5884" y="-1" relative="1" as="geometry">
            <mxPoint as="offset" />
          </mxGeometry>
        </mxCell>
        <mxCell id="AxvDGe59i9QEhmf25YqC-29" style="edgeStyle=orthogonalEdgeStyle;curved=1;rounded=0;orthogonalLoop=1;jettySize=auto;html=1;fontSize=10;" edge="1" parent="1" source="AxvDGe59i9QEhmf25YqC-1" target="AxvDGe59i9QEhmf25YqC-13">
          <mxGeometry relative="1" as="geometry">
            <Array as="points">
              <mxPoint x="580" y="290" />
              <mxPoint x="580" y="410" />
            </Array>
          </mxGeometry>
        </mxCell>
        <mxCell id="AxvDGe59i9QEhmf25YqC-30" value="netTCP" style="edgeLabel;html=1;align=center;verticalAlign=middle;resizable=0;points=[];fontSize=10;" vertex="1" connectable="0" parent="AxvDGe59i9QEhmf25YqC-29">
          <mxGeometry x="0.0538" y="-3" relative="1" as="geometry">
            <mxPoint as="offset" />
          </mxGeometry>
        </mxCell>
        <mxCell id="AxvDGe59i9QEhmf25YqC-31" style="edgeStyle=orthogonalEdgeStyle;curved=1;rounded=0;orthogonalLoop=1;jettySize=auto;html=1;fontSize=10;" edge="1" parent="1" source="AxvDGe59i9QEhmf25YqC-1" target="AxvDGe59i9QEhmf25YqC-14">
          <mxGeometry relative="1" as="geometry">
            <Array as="points">
              <mxPoint x="570" y="290" />
              <mxPoint x="570" y="500" />
            </Array>
          </mxGeometry>
        </mxCell>
        <mxCell id="AxvDGe59i9QEhmf25YqC-32" value="REST-API" style="edgeLabel;html=1;align=center;verticalAlign=middle;resizable=0;points=[];fontSize=10;" vertex="1" connectable="0" parent="AxvDGe59i9QEhmf25YqC-31">
          <mxGeometry x="0.41" y="38" relative="1" as="geometry">
            <mxPoint x="21" y="-12" as="offset" />
          </mxGeometry>
        </mxCell>
        <mxCell id="AxvDGe59i9QEhmf25YqC-33" style="edgeStyle=orthogonalEdgeStyle;curved=1;rounded=0;orthogonalLoop=1;jettySize=auto;html=1;fontSize=10;" edge="1" parent="1" source="AxvDGe59i9QEhmf25YqC-1" target="AxvDGe59i9QEhmf25YqC-15">
          <mxGeometry relative="1" as="geometry" />
        </mxCell>
        <mxCell id="AxvDGe59i9QEhmf25YqC-34" value="netTCP" style="edgeLabel;html=1;align=center;verticalAlign=middle;resizable=0;points=[];fontSize=10;" vertex="1" connectable="0" parent="AxvDGe59i9QEhmf25YqC-33">
          <mxGeometry x="0.4557" y="-15" relative="1" as="geometry">
            <mxPoint as="offset" />
          </mxGeometry>
        </mxCell>
        <mxCell id="AxvDGe59i9QEhmf25YqC-35" style="edgeStyle=orthogonalEdgeStyle;curved=1;rounded=0;orthogonalLoop=1;jettySize=auto;html=1;fontSize=10;" edge="1" parent="1" source="AxvDGe59i9QEhmf25YqC-1" target="AxvDGe59i9QEhmf25YqC-16">
          <mxGeometry relative="1" as="geometry">
            <Array as="points">
              <mxPoint x="530" y="290" />
              <mxPoint x="530" y="570" />
            </Array>
          </mxGeometry>
        </mxCell>
        <mxCell id="AxvDGe59i9QEhmf25YqC-36" value="netTCP" style="edgeLabel;html=1;align=center;verticalAlign=middle;resizable=0;points=[];fontSize=10;" vertex="1" connectable="0" parent="AxvDGe59i9QEhmf25YqC-35">
          <mxGeometry x="0.5063" y="4" relative="1" as="geometry">
            <mxPoint as="offset" />
          </mxGeometry>
        </mxCell>
        <mxCell id="AxvDGe59i9QEhmf25YqC-39" style="edgeStyle=orthogonalEdgeStyle;curved=1;rounded=0;orthogonalLoop=1;jettySize=auto;html=1;fontSize=10;" edge="1" parent="1" source="AxvDGe59i9QEhmf25YqC-1" target="AxvDGe59i9QEhmf25YqC-37">
          <mxGeometry relative="1" as="geometry" />
        </mxCell>
        <mxCell id="AxvDGe59i9QEhmf25YqC-41" style="edgeStyle=orthogonalEdgeStyle;curved=1;rounded=0;orthogonalLoop=1;jettySize=auto;html=1;fontSize=10;" edge="1" parent="1" source="AxvDGe59i9QEhmf25YqC-1" target="AxvDGe59i9QEhmf25YqC-40">
          <mxGeometry relative="1" as="geometry">
            <Array as="points">
              <mxPoint x="215" y="190" />
              <mxPoint x="445" y="190" />
            </Array>
          </mxGeometry>
        </mxCell>
        <mxCell id="AxvDGe59i9QEhmf25YqC-42" value="netTCP" style="edgeLabel;html=1;align=center;verticalAlign=middle;resizable=0;points=[];fontSize=10;" vertex="1" connectable="0" parent="AxvDGe59i9QEhmf25YqC-41">
          <mxGeometry x="0.1864" y="25" relative="1" as="geometry">
            <mxPoint as="offset" />
          </mxGeometry>
        </mxCell>
        <mxCell id="AxvDGe59i9QEhmf25YqC-1" value="SISHAB" style="fontColor=#0066CC;verticalAlign=top;verticalLabelPosition=bottom;labelPosition=center;align=center;html=1;outlineConnect=0;fillColor=#CCCCCC;strokeColor=#6881B3;gradientColor=none;gradientDirection=north;strokeWidth=2;shape=mxgraph.networks.desktop_pc;fontSize=10;" vertex="1" parent="1">
          <mxGeometry x="200" y="260" width="30" height="60" as="geometry" />
        </mxCell>
        <mxCell id="AxvDGe59i9QEhmf25YqC-2" value="BD_SISHAB" style="verticalAlign=top;verticalLabelPosition=bottom;labelPosition=center;align=center;html=1;outlineConnect=0;fillColor=#ffe6cc;strokeColor=#d79b00;gradientDirection=north;strokeWidth=2;shape=mxgraph.networks.storage;fontSize=10;" vertex="1" parent="1">
          <mxGeometry x="100" y="425" width="50" height="70" as="geometry" />
        </mxCell>
        <mxCell id="AxvDGe59i9QEhmf25YqC-3" value="BD_MULTAS" style="verticalAlign=top;verticalLabelPosition=bottom;labelPosition=center;align=center;html=1;outlineConnect=0;fillColor=#ffe6cc;strokeColor=#d79b00;gradientDirection=north;strokeWidth=2;shape=mxgraph.networks.storage;fontSize=10;" vertex="1" parent="1">
          <mxGeometry x="250" y="425" width="50" height="70" as="geometry" />
        </mxCell>
        <mxCell id="AxvDGe59i9QEhmf25YqC-5" style="edgeStyle=orthogonalEdgeStyle;rounded=0;orthogonalLoop=1;jettySize=auto;html=1;fontSize=10;" edge="1" parent="1" source="AxvDGe59i9QEhmf25YqC-4" target="AxvDGe59i9QEhmf25YqC-1">
          <mxGeometry relative="1" as="geometry" />
        </mxCell>
        <mxCell id="AxvDGe59i9QEhmf25YqC-4" value="" style="fontColor=#0066CC;verticalAlign=top;verticalLabelPosition=bottom;labelPosition=center;align=center;html=1;outlineConnect=0;fillColor=#CCCCCC;strokeColor=#6881B3;gradientColor=none;gradientDirection=north;strokeWidth=2;shape=mxgraph.networks.monitor;fontSize=10;" vertex="1" parent="1">
          <mxGeometry x="100" y="50" width="80" height="65" as="geometry" />
        </mxCell>
        <mxCell id="AxvDGe59i9QEhmf25YqC-8" value="SCA" style="fontColor=#0066CC;verticalAlign=top;verticalLabelPosition=bottom;labelPosition=center;align=center;html=1;outlineConnect=0;fillColor=#CCCCCC;strokeColor=#6881B3;gradientColor=none;gradientDirection=north;strokeWidth=2;shape=mxgraph.networks.desktop_pc;fontSize=10;" vertex="1" parent="1">
          <mxGeometry x="550" y="10" width="30" height="60" as="geometry" />
        </mxCell>
        <mxCell id="AxvDGe59i9QEhmf25YqC-9" value="SISFRET" style="fontColor=#0066CC;verticalAlign=top;verticalLabelPosition=bottom;labelPosition=center;align=center;html=1;outlineConnect=0;fillColor=#CCCCCC;strokeColor=#6881B3;gradientColor=none;gradientDirection=north;strokeWidth=2;shape=mxgraph.networks.desktop_pc;fontSize=10;" vertex="1" parent="1">
          <mxGeometry x="670" y="30" width="30" height="60" as="geometry" />
        </mxCell>
        <mxCell id="AxvDGe59i9QEhmf25YqC-10" value="SGP" style="fontColor=#0066CC;verticalAlign=top;verticalLabelPosition=bottom;labelPosition=center;align=center;html=1;outlineConnect=0;fillColor=#CCCCCC;strokeColor=#6881B3;gradientColor=none;gradientDirection=north;strokeWidth=2;shape=mxgraph.networks.desktop_pc;fontSize=10;" vertex="1" parent="1">
          <mxGeometry x="770" y="60" width="30" height="60" as="geometry" />
        </mxCell>
        <mxCell id="AxvDGe59i9QEhmf25YqC-11" value="SISMULTAS" style="fontColor=#0066CC;verticalAlign=top;verticalLabelPosition=bottom;labelPosition=center;align=center;html=1;outlineConnect=0;fillColor=#CCCCCC;strokeColor=#6881B3;gradientColor=none;gradientDirection=north;strokeWidth=2;shape=mxgraph.networks.desktop_pc;fontSize=10;" vertex="1" parent="1">
          <mxGeometry x="840" y="150" width="30" height="60" as="geometry" />
        </mxCell>
        <mxCell id="AxvDGe59i9QEhmf25YqC-12" value="WSRENAVAM" style="fontColor=#0066CC;verticalAlign=top;verticalLabelPosition=bottom;labelPosition=center;align=center;html=1;outlineConnect=0;fillColor=#CCCCCC;strokeColor=#6881B3;gradientColor=none;gradientDirection=north;strokeWidth=2;shape=mxgraph.networks.desktop_pc;fontSize=10;" vertex="1" parent="1">
          <mxGeometry x="900" y="280" width="30" height="60" as="geometry" />
        </mxCell>
        <mxCell id="AxvDGe59i9QEhmf25YqC-13" value="APOIO.SERVICES" style="fontColor=#0066CC;verticalAlign=top;verticalLabelPosition=bottom;labelPosition=center;align=center;html=1;outlineConnect=0;fillColor=#CCCCCC;strokeColor=#6881B3;gradientColor=none;gradientDirection=north;strokeWidth=2;shape=mxgraph.networks.desktop_pc;fontSize=10;" vertex="1" parent="1">
          <mxGeometry x="890" y="380" width="30" height="60" as="geometry" />
        </mxCell>
        <mxCell id="AxvDGe59i9QEhmf25YqC-14" value="APOIOv2" style="fontColor=#0066CC;verticalAlign=top;verticalLabelPosition=bottom;labelPosition=center;align=center;html=1;outlineConnect=0;fillColor=#CCCCCC;strokeColor=#6881B3;gradientColor=none;gradientDirection=north;strokeWidth=2;shape=mxgraph.networks.desktop_pc;fontSize=10;" vertex="1" parent="1">
          <mxGeometry x="820" y="470" width="30" height="60" as="geometry" />
        </mxCell>
        <mxCell id="AxvDGe59i9QEhmf25YqC-15" value="CORPORATIVO" style="fontColor=#0066CC;verticalAlign=top;verticalLabelPosition=bottom;labelPosition=center;align=center;html=1;outlineConnect=0;fillColor=#CCCCCC;strokeColor=#6881B3;gradientColor=none;gradientDirection=north;strokeWidth=2;shape=mxgraph.networks.desktop_pc;fontSize=10;" vertex="1" parent="1">
          <mxGeometry x="440" y="550" width="30" height="60" as="geometry" />
        </mxCell>
        <mxCell id="AxvDGe59i9QEhmf25YqC-16" value="GEDSERVICE" style="fontColor=#0066CC;verticalAlign=top;verticalLabelPosition=bottom;labelPosition=center;align=center;html=1;outlineConnect=0;fillColor=#CCCCCC;strokeColor=#6881B3;gradientColor=none;gradientDirection=north;strokeWidth=2;shape=mxgraph.networks.desktop_pc;fontSize=10;" vertex="1" parent="1">
          <mxGeometry x="590" y="540" width="30" height="60" as="geometry" />
        </mxCell>
        <mxCell id="AxvDGe59i9QEhmf25YqC-37" value="BD_CORPORATIVO" style="verticalAlign=top;verticalLabelPosition=bottom;labelPosition=center;align=center;html=1;outlineConnect=0;fillColor=#ffe6cc;strokeColor=#d79b00;gradientDirection=north;strokeWidth=2;shape=mxgraph.networks.storage;fontSize=10;" vertex="1" parent="1">
          <mxGeometry x="40" y="220" width="50" height="70" as="geometry" />
        </mxCell>
        <mxCell id="AxvDGe59i9QEhmf25YqC-40" value="SEMIURBANO" style="fontColor=#0066CC;verticalAlign=top;verticalLabelPosition=bottom;labelPosition=center;align=center;html=1;outlineConnect=0;fillColor=#CCCCCC;strokeColor=#6881B3;gradientColor=none;gradientDirection=north;strokeWidth=2;shape=mxgraph.networks.desktop_pc;fontSize=10;" vertex="1" parent="1">
          <mxGeometry x="430" y="-10" width="30" height="60" as="geometry" />
        </mxCell>
      </root>
    </mxGraphModel>
  </diagram>
</mxfile>
